<?xml version="1.0" encoding="utf-8"?>
<!-- Generator: Adobe Illustrator 22.1.0, SVG Export Plug-In . SVG Version: 6.00 Build 0)  -->
<svg version="1.1" id="Слой_1" xmlns="http://www.w3.org/2000/svg" xmlns:xlink="http://www.w3.org/1999/xlink" x="0px" y="0px"
	 viewBox="0 0 53 53" width="100%" heigth="100%" style="enable-background:new 0 0 53 53;" xml:space="preserve">
<style type="text/css">
	.st212{fill:none;stroke:#4C4D4D;}
	@keyframes svg_animation{
		50%{
			transform: scale(0.8);
		}
	}
	.st11{
		transform-origin: center center 0;
		animation: svg_animation 2s 0.5s ease infinite;
	}
	.st12{
		transform-origin: center center 0;
		animation: svg_animation 2s 0.6s ease infinite;
	}
	.st13{
		transform-origin: center center 0;
		animation: svg_animation 2s 0.7s ease infinite;
	}
	.st14{
		transform-origin: center center 0;
		animation: svg_animation 2s 0.8s ease infinite;
	}
</style>
<path class="st212 st11" d="M51.6,31.2c-3,6.4-4.1,11.1-10.1,13.5c-5.2,2.1-9.8,7.1-15.8,6C8.3,47.4,9.6,43.6,5.2,39
	c-4-4.3-3.3-5.8-3.3-12.1c0-5.5-1.2-7,6-14.7C12.7,7,19.5,7.4,25.7,3.1c3.9-2.7,6.7-1.7,14.5,4.9C47.6,14.3,54,26.3,51.6,31.2z"/>
<path class="st212 st12" d="M44.5,29.5c-2,4.3-2.7,7.4-6.8,9c-3.5,1.4-6.6,4.8-10.6,4c-11.7-2.2-10.8-4.7-13.7-7.8
	c-2.7-2.8-2.2-3.9-2.2-8.1c0-3.7-0.8-4.7,4-9.8c3.2-3.4,7.7-3.2,11.9-6.1c2.6-1.8,4.5-1.1,9.7,3.3C41.8,18.3,46,26.3,44.5,29.5z"/>
<path class="st212 st13" d="M48.4,30.4c-2.6,5.4-3.4,9.4-8.6,11.4c-4.4,1.8-8.3,6-13.4,5.1c-14.7-2.8-13.7-6-17.3-9.9
	c-3.4-3.6-2.8-4.9-2.8-10.3c0-4.7-1-5.9,5-12.4c4.1-4.4,9.8-4.1,15.1-7.7c3.3-2.3,5.7-1.4,12.2,4.2C45,16.2,50.3,26.3,48.4,30.4z"/>
<path class="st212 st14" d="M37.7,28.2c-1.2,2.5-1.6,4.4-4,5.3c-2.1,0.8-3.9,2.8-6.2,2.4c-6.9-1.3-6.4-2.8-8.1-4.6
	c-1.6-1.7-1.3-2.3-1.3-4.8c0-2.2-0.5-2.8,2.3-5.8c1.9-2,4.6-1.9,7-3.6c1.5-1.1,2.6-0.7,5.7,1.9C36.1,21.6,38.6,26.3,37.7,28.2z"/>
</svg>
