<?xml version="1.0" encoding="utf-8"?>
<!-- Generator: Adobe Illustrator 22.1.0, SVG Export Plug-In . SVG Version: 6.00 Build 0)  -->
<svg version="1.1" id="Capa_1" xmlns="http://www.w3.org/2000/svg" xmlns:xlink="http://www.w3.org/1999/xlink" x="0px" y="0px"
	 viewBox="0 0 244.3 306" style="enable-background:new 0 0 244.3 306;" xml:space="preserve">
<style type="text/css">
	.st0001{fill:#fff;}
	.st0002{fill:#fff;}
	.st0003{fill:#fff;}
		@keyframes svg_animation{
		50%{
			transform: translateY(10px);
			fill: #383737
		}
	}
	.st0001{
		transform-origin: center center 0;
		animation: svg_animation 2s 0.7s ease infinite;
	}
	.st0002{
		transform-origin: center center 0;
		animation: svg_animation 2s 0.6s ease infinite;
	}
	.st0003{
		transform-origin: center center 0;
		animation: svg_animation 2s 0.5s ease forwards;
	}
</style>
<path class="st0001" d="M206.2,184.6c-0.4,1.6-1.3,2.9-2.2,4.2c-16.2,23.5-32.3,47-48.5,70.6c-9.4,13.7-18.8,27.3-28.1,40.9
	c-1,1.5-2.3,2.2-4,2.6c-0.1,0-0.3,0.1-0.4,0.1c-0.6,0-1.3,0-1.8,0c-0.5-0.1-1.1-0.3-1.5-0.5c-1.1-0.4-2.1-1.1-2.8-2.2
	C91.3,263.2,65.8,226,40.2,188.8c0-0.1-0.1-0.1-0.1-0.1c-1.1-1.2-1.8-2.5-2.2-4.1c0-0.6,0-1.3,0-1.8c0.1-0.1,0.1-0.4,0.1-0.5
	c0.4-1.7,1.3-3.1,2.7-4.1c3.4-2.5,7.6-0.9,9.3,1.6C74,215.2,97.9,250.6,121.7,286c0.1,0.2,0.3,0.4,0.4,0.6c0.1-0.2,0.3-0.4,0.4-0.6
	c23.9-35.5,47.9-71.1,71.8-106.6c0.2-0.3,0.4-0.6,0.6-0.8c3.6-3.2,9.5-1.6,10.9,3.1c0.1,0.4,0.2,0.7,0.3,1.1
	C206.2,183.3,206.2,183.9,206.2,184.6z"/>
<path class="st0002" d="M19.4,98c0-0.8,0-1.5,0-2.2c0.1-0.2,0.1-0.4,0.2-0.6c0.5-2.1,1.5-3.8,3.3-5c4.1-3,9.3-1.1,11.4,2
	c29,43.3,58.1,86.4,87.2,129.6c0.2,0.3,0.3,0.5,0.5,0.8c0.2-0.3,0.3-0.5,0.5-0.8c29.2-43.3,58.5-86.6,87.7-130.1
	c0.3-0.3,0.5-0.7,0.8-0.9c4.4-3.9,11.6-2,13.3,3.8c0.2,0.4,0.3,0.9,0.3,1.3c0,0.8,0,1.5,0,2.2c-0.4,1-0.7,2.1-1.2,3.1
	c-0.4,0.8-1.1,1.5-1.6,2.1c-31.1,45.4-62.3,90.7-93.5,136c-0.5,0.8-1.3,1.5-2.1,2c-4.1,2.6-8.9,0.5-10.8-2.2
	c-12.4-18.2-24.9-36.3-37.4-54.4c-18.6-27.1-37.3-54.3-56-81.4C21,101.6,19.8,100,19.4,98z"/>
<path class="st0003" d="M13,2.3c0.5,0.1,1,0.3,1.5,0.4c1.9,0.7,3.5,1.7,4.7,3.5c34,50.5,68,101.1,102.1,151.6c0.2,0.4,0.5,0.7,0.8,1.1
	c0.2-0.4,0.4-0.6,0.6-0.9c34-50.7,68.2-101.4,102.4-152.1c1.4-2.1,3.5-3,5.9-3.5c0.3,0,0.5-0.1,0.8-0.2c0.4,0,0.8,0,1.2,0
	c0.2,0.1,0.4,0.1,0.7,0.2c4,0.7,6.7,2.9,8,6.7c0.2,0.5,0.3,1,0.4,1.5c0,0.9,0,1.8,0,2.6c-0.5,1.2-0.8,2.5-1.4,3.6
	c-0.5,0.9-1.3,1.7-1.9,2.5c-36.4,53.1-72.9,106.1-109.3,159.1c-0.6,0.9-1.5,1.7-2.4,2.3c-4.8,3-10.4,0.6-12.6-2.6
	c-14.5-21.3-29.1-42.4-43.7-63.6C49,82.8,27.2,51,5.3,19.3c-1.3-1.9-2.7-3.7-3.2-6.1c0-0.9,0-1.8,0-2.6c0.1-0.2,0.1-0.5,0.2-0.7
	c0.9-3.6,3.1-6,6.6-7.3c0.5-0.2,0.9-0.3,1.4-0.4C11.1,2.3,12,2.3,13,2.3z"/>
</svg>
