<?xml version="1.0" encoding="utf-8"?>
<!-- Generator: Adobe Illustrator 22.1.0, SVG Export Plug-In . SVG Version: 6.00 Build 0)  -->
<svg version="1.1" id="Capa_1" xmlns="http://www.w3.org/2000/svg" xmlns:xlink="http://www.w3.org/1999/xlink" x="0px" y="0px"
	 viewBox="0 0 244.3 306" style="enable-background:new 0 0 244.3 306;" xml:space="preserve">
<style type="text/css">
	.st0001{fill:#fff;}
	.st0002{fill:#fff;}
	.st0003{fill:#fff;}
		@keyframes svg_animation{
		50%{
			transform: translateY(10px);
			fill: #383737
		}
	}
	.st0001{
		transform-origin: center center 0;
		animation: svg_animation 2s 0.7s ease infinite;
	}
	.st0002{
		transform-origin: center center 0;
		animation: svg_animation 2s 0.6s ease infinite;
	}
	.st0003{
		transform-origin: center center 0;
		animation: svg_animation 2s 0.5s ease forwards;
	}
</style>
<path class="st0001" d="M38,120.6c0.4-1.6,1.3-2.9,2.2-4.2c16.2-23.5,32.3-47,48.5-70.6c9.4-13.7,18.8-27.3,28.1-40.9
	c1-1.5,2.3-2.2,4-2.6c0.1,0,0.3-0.1,0.4-0.1c0.6,0,1.3,0,1.8,0c0.5,0.1,1.1,0.3,1.5,0.5c1.1,0.4,2.1,1.1,2.8,2.2
	C152.9,42,178.4,79.2,204,116.4c0,0.1,0.1,0.1,0.1,0.1c1.1,1.2,1.8,2.5,2.2,4.1c0,0.6,0,1.3,0,1.8c-0.1,0.1-0.1,0.4-0.1,0.5
	c-0.4,1.7-1.3,3.1-2.7,4.1c-3.4,2.5-7.6,0.9-9.3-1.6C170.2,90,146.3,54.6,122.5,19.2c-0.1-0.2-0.3-0.4-0.4-0.6
	c-0.1,0.2-0.3,0.4-0.4,0.6C97.8,54.8,73.8,90.3,49.8,125.8c-0.2,0.3-0.4,0.6-0.6,0.8c-3.6,3.2-9.5,1.6-10.9-3.1
	c-0.1-0.4-0.2-0.7-0.3-1.1C38,121.9,38,121.3,38,120.6z"/>
<path class="st0002" d="M224.9,207.2c0,0.8,0,1.5,0,2.2c-0.1,0.2-0.1,0.4-0.2,0.6c-0.5,2.1-1.5,3.8-3.3,5c-4.1,3-9.3,1.1-11.4-2
	c-29-43.3-58.1-86.4-87.2-129.6c-0.2-0.3-0.3-0.5-0.5-0.8c-0.2,0.3-0.3,0.5-0.5,0.8C92.5,126.8,63.2,170.1,34,213.6
	c-0.3,0.3-0.5,0.7-0.8,0.9c-4.4,3.9-11.6,2-13.3-3.8c-0.2-0.4-0.3-0.9-0.3-1.3c0-0.8,0-1.5,0-2.2c0.4-1,0.7-2.1,1.2-3.1
	c0.4-0.8,1.1-1.5,1.6-2.1c31.1-45.4,62.3-90.7,93.5-136c0.5-0.8,1.3-1.5,2.1-2c4.1-2.6,8.9-0.5,10.8,2.2
	c12.4,18.2,24.9,36.3,37.4,54.4c18.6,27.1,37.3,54.3,56,81.4C223.2,203.6,224.4,205.2,224.9,207.2z"/>
<path class="st0003" d="M231.2,302.9c-0.5-0.1-1-0.3-1.5-0.4c-1.9-0.7-3.5-1.7-4.7-3.5c-34-50.5-68-101.1-102.1-151.6
	c-0.2-0.4-0.5-0.7-0.8-1.1c-0.2,0.4-0.4,0.6-0.6,0.9c-34,50.7-68.2,101.4-102.4,152.1c-1.4,2.1-3.5,3-5.9,3.5
	c-0.3,0-0.5,0.1-0.8,0.2c-0.4,0-0.8,0-1.2,0c-0.2-0.1-0.4-0.1-0.7-0.2c-4-0.7-6.7-2.9-8-6.7c-0.2-0.5-0.3-1-0.4-1.5
	c0-0.9,0-1.8,0-2.6c0.5-1.2,0.8-2.5,1.4-3.6c0.5-0.9,1.3-1.7,1.9-2.5c36.4-53.1,72.9-106.1,109.3-159.1c0.6-0.9,1.5-1.7,2.4-2.3
	c4.8-3,10.4-0.6,12.6,2.6c14.5,21.3,29.1,42.4,43.7,63.6c21.8,31.7,43.6,63.5,65.5,95.2c1.3,1.9,2.7,3.7,3.2,6.1c0,0.9,0,1.8,0,2.6
	c-0.1,0.2-0.1,0.5-0.2,0.7c-0.9,3.6-3.1,6-6.6,7.3c-0.5,0.2-0.9,0.3-1.4,0.4C233.1,302.9,232.2,302.9,231.2,302.9z"/>
</svg>
