<?xml version="1.0" encoding="utf-8"?>
<!-- Generator: Adobe Illustrator 22.1.0, SVG Export Plug-In . SVG Version: 6.00 Build 0)  -->
<svg version="1.1" id="Слой_1" xmlns="http://www.w3.org/2000/svg" xmlns:xlink="http://www.w3.org/1999/xlink" x="0px" y="0px"
	 viewBox="0 0 53 53" style="enable-background:new 0 0 53 53;" xml:space="preserve">
<style type="text/css">
	.st0{fill:none;stroke:#4C4D4D;}
	.st1{fill:#FFFFFF;}
</style>
<path class="st0" d="M51.1,31.1c-3,6.4-4.1,11.1-10.1,13.5c-5.2,2.1-9.8,7.1-15.8,6C7.8,47.3,9.1,43.5,4.7,38.9
	c-4-4.3-3.3-5.8-3.3-12.1c0-5.5-1.2-7,6-14.7C12.2,6.9,19,7.3,25.2,3c3.9-2.7,6.7-1.7,14.5,4.9C47.1,14.2,53.5,26.2,51.1,31.1z"/>
<path class="st0" d="M43,29.5c-2,4.3-2.7,7.4-6.8,9c-3.5,1.4-6.6,4.8-10.6,4c-11.7-2.2-10.8-4.7-13.7-7.8c-2.7-2.8-2.2-3.9-2.2-8.1
	c0-3.7-0.8-4.7,4-9.8c3.2-3.4,7.7-3.2,11.9-6.1c2.6-1.8,4.5-1.1,9.7,3.3C40.3,18.3,44.5,26.3,43,29.5z"/>
<path class="st0" d="M47.4,30.4c-2.6,5.4-3.4,9.4-8.6,11.4c-4.4,1.8-8.3,6-13.4,5.1c-14.7-2.8-13.7-6-17.3-9.9
	c-3.4-3.6-2.8-4.9-2.8-10.3c0-4.7-1-5.9,5-12.4c4.1-4.4,9.8-4.1,15.1-7.7c3.3-2.3,5.7-1.4,12.2,4.2C44,16.2,49.3,26.3,47.4,30.4z"/>
<g id="XMLID_1_">
	<path id="XMLID_2_" class="st1" d="M23,26.7h1.6v6.7c0,0.1,0.1,0.2,0.2,0.2h2.8c0.1,0,0.2-0.1,0.2-0.2v-6.6h1.9
		c0.1,0,0.2-0.1,0.2-0.2l0.3-2.5c0-0.1,0-0.1-0.1-0.2c0-0.1-0.1-0.1-0.2-0.1h-2.1v-1.5c0-0.5,0.3-0.7,0.7-0.7c0.1,0,1.4,0,1.4,0
		c0.1,0,0.2-0.1,0.2-0.2v-2.3c0-0.1-0.1-0.2-0.2-0.2h-1.9c0,0,0,0-0.1,0c-0.3,0-1.5,0.1-2.4,0.9c-1,0.9-0.9,2.1-0.8,2.3v1.8H23
		c-0.1,0-0.2,0.1-0.2,0.2v2.4C22.8,26.6,22.9,26.7,23,26.7z"/>
</g>
</svg>
