<?xml version="1.0" encoding="utf-8"?>
<!-- Generator: Adobe Illustrator 22.1.0, SVG Export Plug-In . SVG Version: 6.00 Build 0)  -->
<svg version="1.1" id="Capa_1" xmlns="http://www.w3.org/2000/svg" xmlns:xlink="http://www.w3.org/1999/xlink" x="0px" y="0px"
	 viewBox="0 0 64 64" style="enable-background:new 0 0 64 64;" xml:space="preserve">
<style type="text/css">
	.st0{fill:#FFFFFF;}
	.st1{fill:none;stroke:#FFFFFF;stroke-width:2;stroke-miterlimit:10;}
</style>
<g>
	<g>
		<polyline class="st0" points="3.4,1.9 12,1.9 12,-0.1 1,-0.1 0,0.9 0,11.9 2,11.9 2,3.4 		"/>
	</g>
	<g>
		<polyline class="st0" points="62,3.4 62,11.9 64,11.9 64,0.9 63,-0.1 52,-0.1 52,1.9 60.6,1.9 		"/>
	</g>
	<g>
		<polyline class="st0" points="60.6,61.9 52,61.9 52,63.9 63,63.9 64,62.9 64,51.9 62,51.9 62,60.5 		"/>
	</g>
	<g>
		<polyline class="st0" points="2,60.5 2,51.9 0,51.9 0,62.9 1,63.9 12,63.9 12,61.9 3.4,61.9 		"/>
	</g>
	<circle class="st1" cx="32" cy="32.2" r="9.4"/>
</g>
</svg>
