<?xml version="1.0" encoding="utf-8"?>
<!-- Generator: Adobe Illustrator 22.1.0, SVG Export Plug-In . SVG Version: 6.00 Build 0)  -->
<svg version="1.1" id="Слой_1" xmlns="http://www.w3.org/2000/svg" xmlns:xlink="http://www.w3.org/1999/xlink" x="0px" y="0px"
	 viewBox="0 0 53 53" style="enable-background:new 0 0 53 53;" xml:space="preserve">
<style type="text/css">
	.st001{fill:none;stroke:#4C4D4D;}
	.st1_3{fill:#FFFFFF;}
		@keyframes svg_animation{
		50%{
			transform: scale(0.8);
		}
	}
	.st0001{
		transform-origin: center center 0;
		animation: svg_animation 3s 0.5s ease infinite;
	}
	.st0002{
		transform-origin: center center 0;
		animation: svg_animation 3s 0.6s ease infinite;
	}
	.st0003{
		transform-origin: center center 0;
		animation: svg_animation 3s 0.7s ease infinite;
	}

</style>
<path class="st001 st0001" d="M51.1,31.1c-3,6.4-4.1,11.1-10.1,13.5c-5.2,2.1-9.8,7.1-15.8,6C7.8,47.3,9.1,43.5,4.7,38.9
	c-4-4.3-3.3-5.8-3.3-12.1c0-5.5-1.2-7,6-14.7C12.2,6.9,19,7.3,25.2,3c3.9-2.7,6.7-1.7,14.5,4.9C47.1,14.2,53.5,26.2,51.1,31.1z"/>
<path class="st001 st0002" d="M43,29.5c-2,4.3-2.7,7.4-6.8,9c-3.5,1.4-6.6,4.8-10.6,4c-11.7-2.2-10.8-4.7-13.7-7.8c-2.7-2.8-2.2-3.9-2.2-8.1
	c0-3.7-0.8-4.7,4-9.8c3.2-3.4,7.7-3.2,11.9-6.1c2.6-1.8,4.5-1.1,9.7,3.3C40.3,18.3,44.5,26.3,43,29.5z"/>
<path class="st001 st0003" d="M47.4,30.4c-2.6,5.4-3.4,9.4-8.6,11.4c-4.4,1.8-8.3,6-13.4,5.1c-14.7-2.8-13.7-6-17.3-9.9
	c-3.4-3.6-2.8-4.9-2.8-10.3c0-4.7-1-5.9,5-12.4c4.1-4.4,9.8-4.1,15.1-7.7c3.3-2.3,5.7-1.4,12.2,4.2C44,16.2,49.3,26.3,47.4,30.4z"/>
<g>
	<path class="st1_3" d="M29.8,18.8h-6.6c-2.2,0-4.1,1.8-4.1,4.1v6.6c0,2.3,1.8,4.1,4.1,4.1h6.6c2.3,0,4.1-1.8,4.1-4.1v-6.6
		C33.9,20.7,32.1,18.8,29.8,18.8z M32.6,29.5c0,1.5-1.2,2.8-2.8,2.8h-6.6c-1.5,0-2.8-1.2-2.8-2.8v-6.6c0-1.5,1.2-2.8,2.8-2.8h6.6
		c1.5,0,2.8,1.2,2.8,2.8L32.6,29.5L32.6,29.5z"/>
	<path class="st1_3" d="M26.5,22.4c-2.1,0-3.8,1.7-3.8,3.8c0,2.1,1.7,3.8,3.8,3.8s3.8-1.7,3.8-3.8C30.3,24.1,28.6,22.4,26.5,22.4z
		 M26.5,28.7c-1.4,0-2.5-1.1-2.5-2.5c0-1.4,1.1-2.5,2.5-2.5s2.5,1.1,2.5,2.5C29,27.6,27.9,28.7,26.5,28.7z"/>
	<path class="st1_3" d="M30.5,21.3c-0.3,0-0.5,0.1-0.7,0.3c-0.2,0.2-0.3,0.4-0.3,0.7c0,0.3,0.1,0.5,0.3,0.7c0.2,0.2,0.4,0.3,0.7,0.3
		c0.3,0,0.5-0.1,0.7-0.3c0.2-0.2,0.3-0.4,0.3-0.7c0-0.3-0.1-0.5-0.3-0.7C31,21.4,30.7,21.3,30.5,21.3z"/>
</g>
</svg>
