<?xml version="1.0" encoding="utf-8"?>
<!-- Generator: Adobe Illustrator 22.1.0, SVG Export Plug-In . SVG Version: 6.00 Build 0)  -->
<svg version="1.1" id="Capa_1" xmlns="http://www.w3.org/2000/svg" xmlns:xlink="http://www.w3.org/1999/xlink" x="0px" y="0px"
	 viewBox="0 0 60 60" style="enable-background:new 0 0 60 60;" xml:space="preserve">
<style type="text/css">
	.st0{fill:#FFFFFF;}
	.st1{fill:#1F2020;}
</style>
<polygon class="st0" points="52.3,36.6 6.3,36.6 6.3,4.6 52.3,4.6 42.3,20.6 "/>
<path class="st0" d="M6.1,0c-0.6,0-1,0.4-1,1v3v55c0,0.6,0.4,1,1,1s1-0.4,1-1V4V1C7.1,0.4,6.6,0,6.1,0z"/>
<path class="st1" d="M13.9,36.6c0-0.9,0-8.8,0-8.9c0-0.4,0.4-0.6,0.7-0.7c0.7-0.1,0.9,0.3,1.8,0.6c0.7,0.3,1.4,0.3,2.1,0.4
	c1.3,0,2.7-0.3,3.7-1.3c0.9-0.9,1.4-2,1.3-3.3c-0.1-1.4-0.9-2.6-1.9-3.5c-0.9-0.8-1.9-1.3-2.9-2c-1.2-0.7-2.7-1.8-2.4-3.4
	c0.3-1.6,2.1-2,3.5-1.6c0.7,0.2,1.4,0.6,1.9,1.2c0.2,0.2,0.5,0.7,0.6,1.1c0.1,0.4,0,1,0,1h0.5V4.6h-0.5v7.7c0,0,0,0.2,0,0.2
	c0,0.4-0.2,0.5-0.4,0.5c-0.3,0.1-0.7-0.2-1-0.3c-1.5-0.6-3.4-0.7-4.6,0.5c-0.9,0.9-1.2,2.3-0.8,3.5c0.4,1.3,1.7,2.2,2.8,2.8
	c1.4,0.8,2.7,1.5,3.5,3c0.7,1.3,0.4,2.8-0.4,4c-0.8,1.2-2.6,1.2-3.8,1c-1.4-0.3-2.7-1.2-3.2-2.1c-0.3-0.6-0.5-1.2-0.5-1.6v-0.5h-0.4
	v13.1H13.9z"/>
<path class="st1" d="M27,12.5h-3.7V13h1L31,27.5l0.2,0.5l0.9-2L38,13.8l0.1-0.3c0.2-0.3,0.3-0.4,0.7-0.5h0.8v-0.5h-3.3V13h1
	c0.2,0,0.3,0.2,0.3,0.4c0,0.1-0.1,0.3-0.1,0.3L32,25.5L26.1,13H27V12.5z"/>
</svg>
