<?xml version="1.0" encoding="utf-8"?>
<!-- Generator: Adobe Illustrator 22.1.0, SVG Export Plug-In . SVG Version: 6.00 Build 0)  -->
<svg version="1.1" id="logo1" xmlns="http://www.w3.org/2000/svg" xmlns:xlink="http://www.w3.org/1999/xlink" x="0px" y="0px"
	 viewBox="0 0 466.7 467.9" style="enable-background:new 0 0 466.7 467.9;" xml:space="preserve">
<style type="text/css">
	.st0{fill-rule:evenodd;clip-rule:evenodd;fill:#FFFFFF;}
</style>
<path class="st0" d="M234.6,316.8l3.3,6.8l12.5-26.3l77.7-163.9l1.7-3.6c2.2-4.2,4.5-5.8,8.8-6.1h11.2v-6.5h-43.9v6.5h13.6
	c2.6,0,4.2,2.8,3.7,5.5c-0.4,1.9-1.6,4.3-1.6,4.3l-74.4,157.1l-77.7-166.8h11.5v-6.5H131v6.5h13.4L234.6,316.8L234.6,316.8z
	 M460.7,461.8H6.2c-0.1-27.2-0.5-138.2,0-142.5c0.6-4.8,4.7-8.5,8.7-9.1c9.1-1.4,12.5,3.4,23.7,7.8c9.3,3.6,18.2,4.5,28.1,4.7
	c17.8,0.2,36.1-4.4,48.9-17.5c12-12.4,19.2-26.8,17.6-44.2c-1.7-18.7-12.4-34.4-25.6-47c-11.8-11.3-25.4-18-39.1-26.6
	c-15.8-9.9-35.9-24-32.2-45.6c3.8-21.8,28.5-27,46.8-21.7c9.8,2.9,19.2,7.7,25.7,15.7c2.1,2.6,6.6,9.3,7.9,14.5
	c1.3,5.2,0,13.6,0,13.6h6.1V6.1h337.8V461.8L460.7,461.8z M0,0h466.7v467.9H0V262.5h4.9v6.2c0.7,4.5,2.7,13.3,7.1,21
	c6.2,10.9,23.2,24,42.3,27.4c16.5,2.9,40.1,1.9,50.6-13.5c11-16.1,13.8-35.6,5-53.3c-9.7-19.7-28-29.7-46.3-39.9
	c-14.5-8.1-32.3-20.9-37.6-37.7c-5.1-15.9-1.9-35.1,10.5-46.7c16.9-16,41.5-13.8,61.7-6.5c3.7,1.3,9.2,5.2,13.3,4.4
	c2.5-0.5,4.9-2,5.2-7.1c0-0.4,0-2.7,0-2.7V6.1H4.9v248.6H0V0L0,0z M421.9,309c-0.4,1.4-0.6,2.4-0.6,4.4c0,1.8,0.2,4.2,1.7,6.2
	c1.4,1.9,3.2,2.3,4.3,2.3c2,0,4.6-1,6.3-4.5c0.7-1.5,1.7-4.8,2.1-6.3l1.6-7.6c0.2-0.9,0.3-2.1,0.3-3.2c0-2.3-0.2-5-1.9-6.8
	c-0.9-0.9-2.3-1.5-3.7-1.5c-2.1,0-4.4,1.7-5.8,3.6c-1.8,2.5-2.8,6.7-3.2,8.5L421.9,309L421.9,309z M408.2,336h6.5l5-21.2h0.4
	c0.1,2.6,1.2,5.1,2.6,6.3c1.8,1.6,4.3,1.7,5.5,1.7c5.1,0,9.2-3,11.8-6c3.1-3.7,4.2-7.5,4.2-11.9c0-2.8-0.5-5.3-2-7.9
	c-2.6-4.5-6.5-6-9.7-6c-2.4,0-4.1,0.7-5.9,2.4c-1.5,1.5-2,2.6-2.8,4.4h-0.3l1.6-6h-12.9l-0.2,1h6.8L408.2,336L408.2,336z
	 M374.7,312.1c-0.4,1.4-0.9,3-0.9,4.7c0,2.6,1,6,5.6,6c4.1,0,8.2-3.1,10.5-5.2c2.1-1.9,3.3-3.7,4.3-5h0.2l-0.3,1.2
	c-0.4,1.4-0.8,2.8-0.8,4.5c0,1.1,0.2,2.3,1.1,3.2c1.1,1.1,2.6,1.4,3.6,1.4c1.6,0,3.1-0.5,4.4-1.4c1.4-1,2.1-2.2,2.8-3.3
	c1.6-2.3,2.2-3.5,2.9-5.1l-1-0.5c-0.5,1-0.9,1.7-1.5,2.7c-0.8,1.3-1.3,2.1-2.2,3.3c-0.6,0.8-1.7,2.1-3,2.1c-0.6,0-1.4-0.3-1.4-1.3
	c0-0.4,0.1-1.2,0.2-1.6l6.9-26.1h-6.4l-4.5,17c-0.6,1.2-1.4,2.4-2.4,3.8c-1.4,1.7-3.1,3.6-4.5,4.8c-3.3,2.9-5.3,3-5.7,3
	c-1.1,0-2.7-0.6-2.7-3.1c0-0.9,0.2-2,0.4-2.8l6-22.7h-13.1l-0.3,1h6.7L374.7,312.1L374.7,312.1z M347.1,302c0.5-1.9,1.9-5.8,5-8.2
	c1.2-0.9,3-1.9,5.1-1.9c2.6,0,5.9,1.2,5.9,6.7c0,1.1-0.2,3.6-0.5,4.6l-2.8,10.2c-0.4,1.7-1.5,4.3-3.8,6.3c-1.7,1.5-3.3,2.1-5.1,2.1
	c-3.4,0-6.7-2-6.7-6.9c0-1,0.2-2.8,0.4-3.7L347.1,302L347.1,302z M342.8,298.1c3.6-4.1,9-7.1,14.5-7.1c3.4,0,6.4,1.1,8.7,3.6
	c1.9,2.1,3.2,5.3,3.2,9c0,3.7-1.2,8.1-5.1,12.5c-5,5.5-10.3,6.7-13.6,6.7c-3.8,0-6.6-1.4-8.6-3.4c-2.3-2.3-3.8-5.5-3.8-9.5
	C338.1,305.5,340.1,301.3,342.8,298.1L342.8,298.1z M336.6,292.5c0.9,0.8,1.5,2.3,1.5,3.7c0,1.9-1.3,4.1-4,4.1
	c-2.1,0-3.4-1.4-3.4-3.1c0-0.8,0.4-1.6,0.9-2.2c0.3-0.3,0.6-0.7,0.6-1.2c0-0.6-0.6-0.8-1.3-0.8c-1.8,0-4.1,2.4-5.2,4
	c-1.5,2.2-2.5,5.3-2.8,6.8l-4.7,18.3h-6.4l7.8-29.3h-6.8l0.2-1H325l-1.1,4.6l0.3,0.1c0.6-0.9,1.7-2.4,2.9-3.4
	c1.6-1.3,3.8-2.1,5.6-2.1C334.1,291,335.7,291.7,336.6,292.5L336.6,292.5z M298.8,298.4l-1.4,6c-0.3,1.4-0.6,2.6-1.3,3.6
	c-0.9,1.1-2.4,2.1-4.3,2.1c-1.6,0-3.8-0.7-3.8-3.7c0-0.7,0.2-1.8,0.3-2.5l1.2-5.5c0.4-2,1.2-3.6,2.3-4.6c0.9-0.9,2.3-1.3,3.4-1.3
	c2.1,0,3.8,1.5,3.8,4.3C299.1,297.4,299,297.8,298.8,298.4L298.8,298.4z M312.8,291.1c0,1.7-1.1,3.3-3.1,3.3c-1.4,0-2.5-0.8-2.5-2.2
	c0-0.4,0.1-0.8,0.2-1.1c0.1-0.3,0.3-0.6,0.3-0.9c0-0.6-0.4-0.9-0.8-0.9c-0.6,0-1.6,0.9-1.7,1c-0.7,0.6-1.6,1.6-2.2,3.5
	c0.8,0.9,2.3,2.6,2.3,5.6c0,3.6-2.3,7-4.7,8.9c-2.8,2.3-6.7,3.4-9.6,3.4c-2.1,0-3.9-0.4-5.8-1.6c-1.1,0.1-2.4,0.5-3.4,1.1
	c-1.2,0.8-1.9,1.8-1.9,3.2c0,2.5,2.4,2.6,4,2.5l12.9-0.6c3.3-0.1,5.1,0.4,6.2,1.1c1.6,1.1,2.1,2.9,2.1,4.5c0,1.8-0.9,4-2,5.9
	c-1.6,2.5-4.1,5-7.1,6.7c-3.2,1.8-7.4,3-12.1,3c-2.1,0-4.7-0.3-6.9-1.4c-2.7-1.4-3.4-3.6-3.4-5.1c0-1.7,0.8-3.7,1.7-4.8
	c1.1-1.3,2.6-2.1,4.1-2.1c1.8,0,2.6,1.5,2.8,2.8c-0.8,0.6-1.7,1.4-2.3,2.2c-0.2,0.4-1,1.5-1,3c0,1.7,0.8,2.7,1.7,3.3
	c0.4,0.3,1.6,0.9,4.1,0.9c2.5,0,5.3-0.6,7.7-1.6c4.9-1.9,8.1-5.4,8.1-8.6c0-1.3-0.6-2.1-1.3-2.5c-0.8-0.4-3.1-0.6-4.4-0.5l-10.3,0.5
	c-1.6,0.1-3.9-0.1-5.8-1.4c-1.8-1.3-2.3-3.1-2.3-4.6c0-1.5,0.5-3.6,2.5-5.5c1.4-1.3,3.1-2.3,5.3-2.9c-2.5-1.8-2.5-5.4-2.5-6
	c0-3.9,2.7-7.5,5.8-9.5c2.6-1.7,5.8-2.6,8.4-2.6c2.8,0,4.9,1.1,6.2,1.9c0.7-1.7,1.6-2.6,2.4-3.4c1.8-1.6,3.5-2,4.6-2
	C311.3,287.5,312.8,289.2,312.8,291.1z"/>
</svg>
