<?xml version="1.0" encoding="utf-8"?>
<!-- Generator: Adobe Illustrator 22.1.0, SVG Export Plug-In . SVG Version: 6.00 Build 0)  -->
<svg version="1.1" id="Capa_1" xmlns="http://www.w3.org/2000/svg" xmlns:xlink="http://www.w3.org/1999/xlink" x="0px" y="0px"
	 viewBox="0 0 459.8 68.9" style="enable-background:new 0 0 459.8 68.9;" xml:space="preserve">
<style type="text/css">
	.st0{fill:#FFFFFF;}
</style>
<g>
	<path class="st0" d="M14.1,68.9c-3.2-0.7-6.5-1.2-9.7-2C0,65.7,0,66.5,0,62.1c0-0.9,0-1.8,0-2.8c3.5,0.9,6.8,2,10.2,2.7
		c5.1,1,10.2,1.1,15.3-0.2c4-1.1,8.2-4.2,9.4-8.5c1.6-6-1.5-11.5-7.4-13.7c-4.4-1.6-9-2.6-13.5-3.8c-0.7-0.2-1.4-0.4-2-0.6
		C4,32.5,1.1,28.6,1,21.1C0.8,12.6,3.8,6.2,11.4,3.5c9.3-3.3,18.5-2,27.5,1.5c0.5,0.2,0.9,1,0.9,1.6c0.1,1.9,0,2.8,0,4.8
		c-3.5-1-6.8-2.1-10.2-2.8c-4.7-1-9.4-1.3-14,0.1C9.9,10.4,7,16.4,8.2,22.3c0.6,2.8,2.4,4.9,5,5.9c3.5,1.4,7.1,2.3,10.6,3.4
		c3.1,1,6.2,1.8,9.2,3c13.1,5.4,11.2,23.2,3.2,29c-3.8,2.8-8.1,4.1-12.7,4.8c-0.8,0.1-1.5,0.3-2.3,0.4
		C18.9,68.9,16.5,68.9,14.1,68.9z"/>
	<path class="st0" d="M309.1,0.3c1.6,0.4,3.2,0.6,4.7,1.1c12,3.6,18.5,12.1,21,23.9c1.7,8,1.2,16-1.7,23.7
		c-4.8,12.6-16.4,19.5-30.6,18.5c-12.8-0.9-23-10.1-25.9-23.2c-2-9.2-1.8-18.2,2.2-26.9C283,8,290.2,2.3,300.5,0.7
		c0.3-0.1,0.7-0.2,1-0.4C304,0.3,306.6,0.3,309.1,0.3z M278.8,37c0.4,1.9,0.8,5.9,2,9.6c3.3,10.4,11.9,17.2,22,18
		c11.6,0.8,21.1-4.1,25.8-14.3c5.4-11.5,5.2-23.2-1.1-34.3c-9-16-32-17.3-42.6-2.7C280.4,19.8,278.6,27.1,278.8,37z"/>
	<path class="st0" d="M459.8,23.2c-0.7,1.8-1.2,3.7-2.2,5.4c-3.1,5.4-8,8.3-14.2,8.5c-7.4,0.2-14.8,0.1-22.2,0.2
		c-1,0-2.1,0.1-3.3,0.2c0,9.6,0,18.9,0,28.4c-1.1,0-2.1,0-3.2,0c0-21.2,0-42.4,0-63.8c0.6-0.1,1.2-0.2,1.8-0.2
		c8.5,0,17.1,0,25.6,0.1c2,0,4.1,0.3,6,0.8c5.7,1.4,9.2,5.2,10.7,10.8c0.3,1.1,0.6,2.1,0.9,3.2C459.8,18.9,459.8,21.1,459.8,23.2z
		 M417.8,34.3c8.6,0,16.8,0.3,25-0.1c8.9-0.4,14.5-7.6,13.5-16.4c-0.8-7.3-5-12.3-11.6-12.7c-8.4-0.5-16.8-0.4-25.1-0.5
		c-1.2,0-1.8,0.6-1.8,1.8c0,2.7,0,5.4,0,8C417.8,21,417.8,27.6,417.8,34.3z"/>
	<path class="st0" d="M111.6,2.9c-0.3,0.9-0.6,1.7-0.8,2.4c-7.7,20.1-15.4,40.3-23,60.4c-0.6,1.5-1.2,2-2.8,2
		c-4.9-0.1-4.9,0-6.7-4.7C71,43.7,63.6,24.5,56.3,5.3c-0.3-0.7-0.5-1.4-0.9-2.4c2.6,0,4-0.1,6.3,0.1c0.5,0,1.1,0.9,1.3,1.5
		c6.3,17,13.5,35.1,19.7,52.2c0.2,0.5,0.4,0.9,0.7,1.8c0.4-0.9,0.6-1.5,0.8-2.1c6.2-17,13.4-35,19.5-52c0.4-1.1,0.9-1.6,2.1-1.5
		C108.1,3,109.2,2.9,111.6,2.9z"/>
	<path class="st0" d="M199.9,21.3c-1.9,0.6-2.7-0.1-3.5-1.8c-1.2-2.6-2.4-5.3-4.2-7.5c-9.8-12.3-30.8-11.3-39.5,2.2
		c-7.8,12.3-8.4,25.6-1.1,38.3c8.6,15,31.8,16.3,41.8,2.7c3.5-4.7,4.7-10,4.9-15.7c0-1.6-0.8-1.7-2-1.7c-6.3,0-12.7,0-19,0
		c-0.8,0-1.5,0-2.4,0c0-1,0-1.7,0-2.6c8.7,0,17.4,0,26.1,0c0,10.1,0,20.1,0,30.3c-0.7,0-1.2,0.1-2.4,0.1c0-4.9,0-9.7,0-14.4
		c-0.2,0-0.5,0-0.7-0.1c-0.2,0.4-0.5,0.8-0.7,1.2c-4,9.2-11.3,13.8-21.1,14.6c-17,1.5-30.2-9.5-32.2-26.5c-1.1-9.2,0-17.9,4.6-25.9
		c9.9-17.2,35.3-19.2,47-3.7C198,14.1,199.6,17.9,199.9,21.3z"/>
	<path class="st0" d="M220.3,65.9c-1.1,0-2,0-3,0c0-21.3,0-42.5,0-64c1.1,0,2.1,0,3.1,0c8.3,0,16.5,0,24.8,0.1
		c1.8,0,3.5,0.2,5.2,0.6c7.5,1.5,11.9,6.7,12.7,14.6c0.7,7.8-2.9,13.8-9.9,16.6c-0.9,0.4-1.8,0.7-3.4,1.3c1.3,0.4,2,0.6,2.8,0.8
		c5.9,1.6,8.6,5,9.1,11.2s1.1,12.5,1.7,18.7c-2.6,0.6-3.3,0.3-3.6-2.4c-0.6-5.3-0.8-10.5-1.5-15.8c-0.9-7-4.7-10.6-11.8-10.9
		c-8-0.3-16.1-0.3-24.1-0.4c-1.7,0-2.2,0.7-2.2,2.3c0,8.3,0,16.5,0,24.8C220.3,64.1,220.3,64.9,220.3,65.9z M220.3,19.2L220.3,19.2
		c0,4.2,0,8.3,0,12.5c0,1.2,0.2,2.1,1.7,2.1c8-0.1,16.1-0.1,24.1-0.5c4.6-0.2,8.9-1.8,11.6-6c6-9.3,0.8-21.2-10.2-22.2
		c-8.5-0.8-17-0.4-25.6-0.5c-1.5,0-1.6,1-1.6,2.1C220.3,10.9,220.3,15,220.3,19.2z"/>
	<path class="st0" d="M394.1,2.1c1.2,0,2.1,0,3.3,0c0,3,0,5.9,0,8.7c0,10.9,0,21.9,0,32.8c0,3.9-0.4,7.8-2.1,11.3
		c-3.7,7.9-10.3,11.6-18.7,12.2c-3.7,0.3-7.5,0.1-11.1-0.7c-9.4-1.9-14.7-7.7-16.2-17.1c-0.5-3-0.7-6-0.8-9c-0.1-12.1,0-24.3,0-36.4
		c0-0.5,0.1-1.1,0.1-1.8c1.1,0,2,0,3.3,0c0,0.8,0,1.5,0,2.3c0,11.8,0,23.7,0.1,35.5c0,3.4,0.5,6.9,1.1,10.3
		c1.4,7.7,6.2,12.4,13.9,13.6c3.8,0.6,7.9,0.8,11.7,0.2c9.1-1.4,14.3-7.6,15-17.5c0.4-5.1,0.4-10.3,0.4-15.4c0.1-8.9,0-17.8,0-26.7
		C394.1,3.7,394.1,2.9,394.1,2.1z"/>
</g>
</svg>
