<!--?xml version="1.0" encoding="utf-8"?-->
<!-- Generator: Adobe Illustrator 22.1.0, SVG Export Plug-In . SVG Version: 6.00 Build 0)  -->
<svg version="1.1" id="Capa_1" xmlns="http://www.w3.org/2000/svg" xmlns:xlink="http://www.w3.org/1999/xlink" x="0px" y="0px" viewBox="0 0 22.3 22.3" style="" xml:space="preserve">
<style type="text/css">
	.st0{fill:none;stroke:#ffffff;stroke-miterlimit:10;}
	.st1{fill: none; stroke:#ffffff;stroke-width: 0.1 }
</style>
<g>
	<g>
		<path class="st0 jmSTdevz_0" width="20.1" height="20.1" d="M1.1 1.2 L21.200000000000003 1.2 L21.200000000000003 21.3 L1.1 21.3 Z"></path>
	</g>
	<g>
		<path class="st1 jmSTdevz_1" d="M11.1,14.6c0,0,0-0.1,0.1-0.1c1.2-2.5,2.4-5,3.5-7.5c0-0.1,0.1-0.1,0.1-0.2c0-0.2,0-0.3-0.2-0.3
			c-0.2,0-0.4,0-0.6,0c0-0.1,0-0.2,0-0.3c0.7,0,1.4,0,2.1,0c0,0.1,0,0.2,0,0.3c-0.2,0-0.3,0-0.5,0c-0.3,0-0.4,0.1-0.5,0.3
			c-0.3,0.7-0.6,1.4-1,2.1c-1.1,2.4-2.3,4.8-3.4,7.2c0,0,0,0.1-0.1,0.1c-0.1-0.1-0.1-0.2-0.2-0.3C8.8,12.7,8.6,12.4,7,9.3
			c0-0.1-0.1-0.1-0.2-0.1c-0.2,0-0.3,0-0.5,0c0-0.1,0-0.2,0-0.3c0.8,0,1.6,0,2.4,0c0,0.1,0,0.2,0,0.3c-0.2,0-0.3,0-0.5,0
			C9.6,11.8,9.7,12,11.1,14.6z"></path>
	</g>
</g>
<style data-made-with="vivus-instant">
.jmSTdevz_0{stroke-dasharray:81 83;stroke-dashoffset:82;animation:jmSTdevz_draw 1000ms linear 0ms forwards;}
.jmSTdevz_1{stroke-dasharray:43 45;stroke-dashoffset:44;animation:jmSTdevz_draw1 1000ms linear 1000ms forwards;}
@keyframes jmSTdevz_draw{100%{stroke-dashoffset:0;}}
@keyframes jmSTdevz_draw1{50%{stroke-dashoffset:0;} 100%{fill: #ffffff}}
@keyframes jmSTdevz_fade{0%{stroke-opacity:1;}94.44444444444444%{stroke-opacity:1;}100%{stroke-opacity:0;}}
</style>
</svg>
